<svg xmlns="http://www.w3.org/2000/svg" width="1333" height="1332" viewBox="0 0 1333 1332" version="1.1">
	<path d="M 668.703 323.485 C 662.982 329.094, 662 330.565, 662 333.528 C 662 335.438, 661.622 337, 661.161 337 C 660.172 337, 658 341.472, 658 343.509 C 658 344.298, 659.665 345.371, 661.768 345.937 C 666.621 347.244, 671.212 353.122, 674.056 361.669 L 676.187 368.072 673.371 374.536 C 671.822 378.091, 670.318 380.999, 670.027 380.997 C 669.737 380.995, 669.478 379.308, 669.451 377.247 C 669.376 371.431, 664.780 362.782, 660.130 359.705 C 656.103 357.040, 652.244 352.627, 649.769 347.855 C 646.318 341.205, 638.964 334.911, 635.500 335.644 C 631.188 336.557, 621.567 336.202, 621.206 335.118 C 620.691 333.573, 615.773 333.714, 613.553 335.337 C 612.012 336.464, 611.869 337.286, 612.643 340.559 C 613.397 343.745, 614.137 344.608, 616.766 345.362 C 619.432 346.126, 621.164 345.747, 627.070 343.107 L 634.169 339.932 642.653 348.716 C 647.319 353.547, 650.811 356.868, 650.414 356.095 C 649.939 355.173, 650.088 354.936, 650.845 355.405 C 651.480 355.797, 652 356.793, 652 357.618 C 652 358.443, 652.461 358.833, 653.025 358.485 C 653.588 358.136, 653.947 358.222, 653.821 358.676 C 653.695 359.129, 654.102 361.750, 654.724 364.500 C 655.609 368.413, 655.895 380.292, 655.140 381.776 C 654.787 382.469, 649.259 378.932, 647.124 376.647 C 645.818 375.248, 643.516 373.833, 642.010 373.502 C 640.504 373.171, 637.073 370.649, 634.386 367.896 C 630.329 363.741, 621.490 357.875, 619.487 358.008 C 619.197 358.028, 617.731 356.874, 616.230 355.444 C 612.912 352.284, 609.899 351.008, 605.685 350.976 C 603.933 350.963, 599.800 349.840, 596.500 348.481 C 593.200 347.121, 589.635 346.007, 588.579 346.005 C 587.522 346.002, 585.802 345.225, 584.755 344.279 C 583.283 342.947, 580.553 342.479, 572.677 342.211 C 567.080 342.021, 559.575 341.472, 556 340.993 C 552.425 340.513, 543.425 339.809, 536 339.428 C 528.575 339.047, 521.774 338.362, 520.887 337.906 C 520 337.450, 518.722 335.742, 518.046 334.111 C 516.281 329.850, 510.020 325.780, 505.845 326.180 C 502.923 326.459, 502.462 326.890, 502.199 329.585 C 501.958 332.059, 502.796 333.669, 506.432 337.713 C 508.926 340.487, 512.661 343.543, 514.733 344.506 C 516.805 345.468, 519.290 346.945, 520.256 347.788 C 521.408 348.794, 525.356 349.582, 531.756 350.083 C 550.529 351.553, 589.333 363.706, 600.571 371.636 C 603.911 373.993, 607.146 377.024, 607.760 378.373 C 608.829 380.719, 608.761 380.790, 606.189 380.012 C 604.710 379.565, 601.700 378.392, 599.500 377.407 C 596.513 376.069, 592.968 375.618, 585.500 375.623 C 576.937 375.629, 574.207 376.075, 566.500 378.726 C 561.550 380.428, 555.233 382.054, 552.463 382.338 C 543.713 383.236, 528.476 389.241, 521.317 394.612 C 519.566 395.925, 517.533 397, 516.799 397 C 516.065 397, 513.448 398.925, 510.983 401.277 C 508.517 403.629, 504.700 406.647, 502.500 407.983 C 497.466 411.039, 484.381 423.597, 482.423 427.250 C 481.074 429.766, 481.254 430.423, 483.214 430.130 C 483.607 430.072, 483.657 430.731, 483.325 431.596 C 482.835 432.873, 482.547 432.918, 481.790 431.834 C 481.157 430.927, 480.985 431.538, 481.254 433.740 C 481.557 436.218, 481.072 437.511, 479.188 439.240 C 477.479 440.808, 476.589 441.118, 476.279 440.250 C 475.542 438.182, 473.395 438.837, 472.182 441.500 C 471.425 443.162, 471.391 444, 472.080 444 C 472.651 444, 472.835 444.457, 472.490 445.016 C 472.144 445.575, 471.482 445.798, 471.019 445.512 C 470.555 445.225, 470.305 445.780, 470.463 446.745 C 470.621 447.710, 470.131 450.017, 469.375 451.872 C 467.448 456.598, 467.526 462.119, 469.509 461.358 C 470.338 461.040, 471.280 459.734, 471.600 458.456 C 471.969 456.988, 472.702 456.332, 473.592 456.674 C 474.392 456.981, 475 456.606, 475 455.806 C 475 453.518, 477.407 449.016, 478.635 449.008 C 480.478 448.995, 483.165 453.906, 482.486 456.046 C 481.717 458.466, 480.407 458.549, 479.125 456.258 C 478.589 455.300, 477.838 454.829, 477.456 455.211 C 477.074 455.592, 477.490 456.633, 478.381 457.524 C 480.403 459.546, 480.376 459.969, 478.055 462.752 C 476.830 464.220, 475.582 464.777, 474.471 464.351 C 472.993 463.784, 472.922 463.986, 473.934 465.876 C 474.575 467.075, 475.528 467.792, 476.050 467.469 C 477.035 466.860, 477.099 467.007, 477.492 470.760 C 477.677 472.529, 477.442 472.782, 476.408 471.923 C 475.682 471.321, 474.615 471.120, 474.037 471.477 C 473.459 471.835, 472.716 471.423, 472.386 470.563 C 472.056 469.704, 471.214 469, 470.515 469 C 468.359 469, 466.875 466.525, 468.224 465.176 C 469.056 464.344, 469.073 464, 468.282 464 C 463.239 464, 462.170 470.695, 466.604 474.505 C 468.825 476.414, 469.041 477.056, 468.069 478.871 C 467.442 480.042, 466.380 481, 465.709 481 C 465.038 481, 463.873 482.389, 463.122 484.087 C 461.999 486.623, 461.985 487.604, 463.041 489.577 C 464.050 491.463, 464.076 492.788, 463.160 495.740 C 462.519 497.808, 462.028 501.750, 462.071 504.500 C 462.113 507.250, 461.963 511.525, 461.736 514 C 461.509 516.475, 461.251 520.115, 461.162 522.089 C 461.035 524.893, 460.436 525.936, 458.425 526.852 C 454.915 528.451, 453.699 527.417, 454.441 523.463 C 455.077 520.074, 454.229 518.602, 452.341 519.816 C 450.763 520.831, 449.584 530, 451.031 530 C 452.650 530, 451.726 539.327, 449.545 545 C 448.541 547.610, 447.771 552.518, 447.710 556.687 C 447.653 560.640, 447.310 563.692, 446.948 563.468 C 446.585 563.244, 446.491 564.119, 446.739 565.413 C 446.986 566.707, 446.716 568.058, 446.138 568.415 C 445.560 568.772, 445.340 569.722, 445.648 570.526 C 445.957 571.331, 446.563 571.770, 446.995 571.503 C 448.540 570.548, 450.811 577.630, 451.323 585 C 452.132 596.635, 455.703 612.018, 459.565 620.500 C 465.827 634.254, 471.875 645.992, 474 648.512 C 474.825 649.490, 475.950 651.333, 476.500 652.606 C 478.240 656.633, 492.183 671.432, 503.116 680.855 C 509.959 686.753, 525.161 697.165, 533.500 701.665 C 546.910 708.901, 560.512 715.133, 566.819 716.930 C 570.494 717.976, 575.525 719.530, 578 720.381 C 593.911 725.855, 599.614 726.795, 621.554 727.560 C 638.591 728.154, 639.410 728.231, 642.440 729.529 C 643.713 730.074, 644.518 729.945, 644.783 729.152 C 645.042 728.374, 646.309 728.151, 648.343 728.526 C 651.023 729.020, 668.727 726.680, 690 723.019 C 696.816 721.846, 710.482 718.179, 714.500 716.445 C 723.139 712.715, 743.652 707.348, 754.346 706.019 C 764.917 704.706, 766.863 704.071, 780 697.647 C 790.489 692.518, 794.457 690.021, 799.164 685.589 C 802.864 682.104, 812.200 675.262, 817.208 672.366 C 820.989 670.178, 836 656.609, 836 655.378 C 836 654.694, 836.964 653.829, 838.142 653.455 C 841.156 652.498, 861.360 632.228, 863.514 628 C 864.494 626.075, 866.305 623.150, 867.537 621.500 C 869.855 618.396, 872.990 611.289, 878.125 597.500 C 885.680 577.213, 887.859 569.236, 888.367 560 C 888.624 555.325, 889.387 547.582, 890.062 542.794 C 891.117 535.317, 891.050 532.517, 889.583 522.964 C 888.634 516.781, 886.604 508.655, 885.012 504.670 C 883.438 500.727, 881.851 496.150, 881.486 494.500 C 878.850 482.569, 870.575 465.911, 862.442 456.165 C 860.760 454.149, 858.332 450.700, 857.047 448.500 C 845.581 428.866, 833.107 414.835, 818.500 405.138 C 813 401.487, 808.050 398.330, 807.500 398.122 C 806.950 397.915, 804.237 396.729, 801.471 395.487 C 790.434 390.532, 786.788 389.742, 772.622 389.233 C 760.346 388.793, 758.689 388.528, 758.273 386.937 C 757.973 385.790, 757.235 385.356, 756.237 385.739 C 755.205 386.135, 754.918 385.942, 755.395 385.170 C 755.793 384.526, 756.766 384, 757.559 384 C 758.412 384, 759 383.024, 759 381.607 C 759 380.291, 759.739 378.931, 760.641 378.584 C 762.074 378.034, 762.106 378.169, 760.891 379.641 C 759.623 381.178, 759.700 381.221, 761.750 380.129 C 762.987 379.469, 764 378.495, 764 377.965 C 764 377.434, 764.689 377, 765.531 377 C 766.374 377, 767.296 376.393, 767.581 375.651 C 767.865 374.909, 769.471 374.263, 771.150 374.215 C 772.828 374.167, 774.979 373.424, 775.929 372.564 C 776.880 371.704, 778.169 371, 778.794 371 C 779.418 371, 780.437 370.052, 781.057 368.893 C 781.777 367.547, 782.532 367.132, 783.144 367.744 C 783.757 368.357, 786.081 368.153, 789.570 367.182 C 795.002 365.670, 795.054 365.677, 797.768 368.216 C 799.271 369.621, 803.803 372.461, 807.840 374.527 C 815.036 378.211, 815.246 378.253, 818.523 376.690 C 821.169 375.429, 821.932 374.408, 822.183 371.798 C 822.425 369.279, 822.920 368.571, 824.279 368.800 C 825.682 369.037, 825.961 368.571, 825.603 366.594 C 824.981 363.164, 824.002 361.663, 820.500 358.769 C 817.856 356.583, 816.181 356.207, 806.372 355.599 C 795.919 354.950, 794.538 355.096, 783.597 358.016 C 772.653 360.937, 759.195 366.877, 752.143 371.898 C 750.519 373.054, 748.815 374, 748.354 374 C 747.894 374, 744.220 375.629, 740.190 377.621 C 734.898 380.236, 731.073 381.385, 726.420 381.759 C 720.711 382.217, 719.835 382.572, 718.731 384.876 C 717.118 388.241, 714.387 388.712, 711.612 386.105 C 709.579 384.196, 709.227 384.153, 707.201 385.572 C 705.164 386.999, 705 386.972, 705 385.208 C 705 383.374, 707.117 382.156, 716.627 378.517 C 718.347 377.859, 721.160 375.883, 722.877 374.126 C 725.891 371.042, 726.948 369.296, 725.113 370.430 C 724.626 370.731, 723.735 370.386, 723.135 369.662 C 722.261 368.610, 722.828 368.376, 725.969 368.494 C 728.129 368.574, 729.668 368.271, 729.389 367.820 C 729.110 367.369, 730.076 367, 731.535 367 C 733.287 367, 734.354 366.364, 734.677 365.126 C 734.947 364.096, 736.480 362.282, 738.084 361.096 C 739.688 359.910, 741 358.279, 741 357.470 C 741 356.662, 741.450 356, 742 356 C 742.550 356, 743 355.379, 743 354.621 C 743 353.862, 744.840 351.346, 747.088 349.029 C 752.031 343.936, 759.387 328.676, 758.535 325.283 C 758.187 323.896, 757.207 323, 756.040 323 C 754.983 323, 753.840 322.550, 753.500 322 C 753.160 321.450, 751.528 321, 749.874 321 C 747.255 321, 746.938 321.292, 747.423 323.250 C 747.730 324.488, 747.734 324.970, 747.432 324.323 C 746.909 323.204, 744.819 323.555, 739 325.739 C 738.175 326.049, 736.833 326.435, 736.018 326.597 C 735.203 326.759, 734.372 327.384, 734.171 327.987 C 733.959 328.624, 733.114 328.285, 732.153 327.177 C 729.651 324.294, 724.713 325.451, 720.124 329.994 C 717.301 332.789, 715.752 335.635, 714.064 341.125 C 712.816 345.181, 710.154 351.925, 708.148 356.111 C 704.820 363.055, 704.257 363.704, 701.729 363.507 C 697.837 363.205, 697.515 362.541, 699.369 358.635 C 702.046 352.993, 701.349 346, 698.109 346 C 695.869 346, 693 340.961, 693 337.029 C 693 335.172, 691.937 332.473, 690.425 330.491 C 688.943 328.547, 687.561 325.076, 687.167 322.308 L 686.483 317.500 680.944 317.206 L 675.406 316.912 668.703 323.485 M 712 354.059 C 712 354.641, 712.450 354.840, 713 354.500 C 713.550 354.160, 714 353.684, 714 353.441 C 714 353.198, 713.550 353, 713 353 C 712.450 353, 712 353.477, 712 354.059 M 827 368 C 827 369.100, 827.173 370, 827.383 370 C 827.594 370, 828.002 369.100, 828.290 368 C 828.577 366.900, 828.405 366, 827.906 366 C 827.408 366, 827 366.900, 827 368 M 527.412 411.369 C 527.088 412.213, 527.114 413.376, 527.470 413.952 C 527.827 414.528, 527.585 415, 526.934 415 C 526.171 415, 525.949 415.994, 526.309 417.797 C 526.852 420.508, 525.663 423.996, 524.569 422.902 C 524.272 422.605, 523.823 420.368, 523.572 417.931 C 523.320 415.494, 523.089 413.351, 523.057 413.168 C 523.026 412.986, 521.484 413.774, 519.632 414.918 C 515.521 417.459, 513.421 417.551, 512.080 415.250 C 510.887 413.202, 510.842 413.398, 510.478 422.277 C 510.325 426.004, 509.686 429.673, 509.058 430.430 C 508.192 431.473, 508.229 431.917, 509.208 432.266 C 511.001 432.905, 509.964 433.786, 506.727 434.373 C 504.749 434.732, 504 434.455, 504 433.366 C 504 432.341, 503.391 432.058, 502.081 432.474 C 500.698 432.913, 499.975 432.498, 499.497 430.989 C 498.979 429.360, 498.531 429.145, 497.475 430.020 C 496.729 430.640, 496.394 431.862, 496.729 432.737 C 497.134 433.792, 496.946 434.085, 496.170 433.605 C 495.048 432.912, 494.471 434.362, 495.019 436.500 C 495.995 440.307, 495.673 446.027, 494.424 447.063 C 493.268 448.022, 493 447.845, 493 446.122 C 493 444.955, 493.450 444, 494 444 C 494.550 444, 495 443.524, 495 442.943 C 495 442.351, 494.023 442.571, 492.777 443.443 C 491.555 444.299, 489.755 445, 488.777 445 C 486.843 445, 486.387 446.503, 488.016 447.510 C 488.575 447.856, 488.769 448.564, 488.447 449.085 C 488.125 449.606, 487.494 449.805, 487.045 449.528 C 485.787 448.751, 485.092 452.692, 486.277 453.877 C 487.506 455.106, 487.878 466, 486.691 466 C 486.246 466, 486.160 466.450, 486.500 467 C 486.853 467.571, 485.912 468.034, 484.309 468.079 C 482.764 468.122, 482.063 468.385, 482.750 468.662 C 484.812 469.494, 484.159 471.275, 481.999 470.710 C 480.898 470.422, 480.226 470.556, 480.505 471.008 C 480.784 471.460, 480.620 471.980, 480.140 472.165 C 479.661 472.349, 479.557 473.303, 479.909 474.284 C 480.512 475.962, 480.678 475.948, 482.711 474.055 L 484.871 472.042 485.186 474.694 C 485.524 477.547, 488 479.210, 488 476.583 C 488 475.712, 488.469 475, 489.042 475 C 490.869 475, 494.247 471.270, 493.075 470.547 C 491.246 469.416, 491.891 467, 494.021 467 C 496.671 467, 498.790 462.657, 497.121 460.646 C 496.202 459.538, 496.295 459.101, 497.556 458.617 C 499.863 457.731, 500.008 457.816, 499.309 459.636 C 498.878 460.761, 499.122 461.127, 500.091 460.805 C 500.875 460.544, 501.575 458.859, 501.670 457.003 C 501.764 455.150, 502.541 453.277, 503.420 452.785 C 504.289 452.299, 505 451.109, 505 450.141 C 505 447.782, 507.338 444.714, 509.362 444.417 C 510.263 444.285, 511 444.812, 511 445.588 C 511 446.365, 511.502 447, 512.117 447 C 512.774 447, 512.997 446.097, 512.658 444.802 C 512.342 443.593, 512.570 442.018, 513.164 441.302 C 513.946 440.360, 513.900 439.585, 513 438.500 C 512.140 437.464, 512.102 437, 512.878 437 C 513.495 437, 514 436.433, 514 435.741 C 514 435.048, 514.901 433.919, 516.002 433.231 C 517.694 432.174, 518.257 432.278, 519.649 433.903 C 520.554 434.960, 521.903 435.591, 522.647 435.305 C 523.438 435.002, 524 435.453, 524 436.393 C 524 437.349, 523.165 438, 521.941 438 C 520.809 438, 520.160 438.450, 520.500 439 C 520.840 439.550, 520.754 440.001, 520.309 440.002 C 519.864 440.003, 519.404 441.374, 519.287 443.048 C 519.169 444.722, 518.151 447.264, 517.023 448.698 C 515.895 450.132, 515.265 451.574, 515.623 451.903 C 515.981 452.231, 516.475 451.938, 516.720 451.250 C 516.966 450.563, 517.985 450, 518.986 450 C 520.107 450, 521.205 448.850, 521.850 447 C 522.425 445.350, 523.594 444, 524.448 444 C 525.302 444, 526 443.325, 526 442.500 C 526 441.675, 526.675 441, 527.500 441 C 528.325 441, 529 440.250, 529 439.333 C 529 438.417, 528.703 437.964, 528.340 438.327 C 527.977 438.690, 527.031 438.061, 526.238 436.929 C 524.614 434.611, 524.796 434.174, 527.561 433.744 C 528.627 433.578, 530.015 433.120, 530.645 432.727 C 532.118 431.807, 533.012 434.141, 532.339 437.154 C 531.888 439.172, 532.038 439.100, 533.408 436.636 C 534.283 435.060, 535 432.917, 535 431.872 C 535 430.828, 535.397 429.191, 535.883 428.236 C 538.531 423.032, 539.168 421.081, 538.549 420.079 C 538.171 419.468, 537.525 419.176, 537.113 419.430 C 536.701 419.685, 535.733 419.017, 534.961 417.946 C 533.574 416.021, 531 415.267, 531 416.786 C 531 417.218, 530.100 417.571, 529 417.571 C 526.142 417.571, 526.531 416.129, 529.716 414.918 C 531.669 414.175, 532.067 413.659, 531.131 413.081 C 530.415 412.638, 529.901 411.888, 529.990 411.413 C 530.281 409.843, 528.013 409.804, 527.412 411.369 M 542 415.115 C 542 416.983, 542.449 418.017, 543.158 417.781 C 544.920 417.193, 545.164 413.277, 543.479 412.630 C 542.373 412.206, 542 412.832, 542 415.115 M 533.345 422.543 C 533.019 423.392, 533.034 424.367, 533.376 424.710 C 533.719 425.053, 534 424.621, 534 423.750 C 534 422.879, 534.563 421.940, 535.250 421.662 C 536.229 421.267, 536.222 421.141, 535.219 421.079 C 534.514 421.036, 533.671 421.694, 533.345 422.543 M 543.651 422.468 C 543.065 423.994, 544.683 425.651, 545.733 424.600 C 546.063 424.270, 545.822 424, 545.198 424 C 544.574 424, 544.322 423.325, 544.638 422.500 C 544.955 421.675, 544.989 421, 544.714 421 C 544.439 421, 543.960 421.661, 543.651 422.468 M 547 423.559 C 547 424.416, 547.457 424.835, 548.016 424.490 C 548.575 424.144, 548.774 423.443, 548.457 422.931 C 547.600 421.544, 547 421.802, 547 423.559 M 540.150 424.950 C 540.580 426.239, 541.951 426.471, 542.075 425.275 C 542.116 424.876, 541.610 424.370, 540.950 424.150 C 540.290 423.930, 539.930 424.290, 540.150 424.950 M 488.769 434.956 C 488.078 437.417, 488.491 438.842, 489.581 437.753 C 489.900 437.433, 490.004 436.121, 489.810 434.836 L 489.459 432.500 488.769 434.956 M 489.500 441 C 489.160 441.550, 489.332 442, 489.882 442 C 490.432 442, 491.160 441.550, 491.500 441 C 491.840 440.450, 491.668 440, 491.118 440 C 490.568 440, 489.840 440.450, 489.500 441 M 475 443.441 C 475 444.234, 475.450 445.160, 476 445.500 C 476.550 445.840, 477 445.191, 477 444.059 C 477 442.927, 476.550 442, 476 442 C 475.450 442, 475 442.648, 475 443.441 M 480 444.469 C 480 445.361, 480.587 445.712, 481.494 445.364 C 482.316 445.048, 482.740 444.388, 482.435 443.895 C 481.563 442.483, 480 442.851, 480 444.469 M 757 447.227 C 757 450.355, 758.740 451.842, 759.644 449.486 C 759.999 448.559, 759.561 447.132, 758.637 446.208 C 757.121 444.693, 757 444.768, 757 447.227 M 658.552 449.915 C 658.241 450.419, 659.227 452.283, 660.743 454.059 C 662.259 455.835, 665.308 460.260, 667.518 463.894 C 669.728 467.527, 671.947 470.431, 672.451 470.348 C 672.954 470.264, 674.349 468.356, 675.552 466.108 C 676.754 463.860, 678.255 461.398, 678.886 460.637 C 679.518 459.876, 679.778 458.634, 679.465 457.877 C 678.760 456.173, 670.220 451.962, 667.500 451.977 C 666.400 451.983, 664.211 451.315, 662.636 450.494 C 659.263 448.735, 659.280 448.737, 658.552 449.915 M 765.010 456.744 C 759.808 457.201, 757.411 459.291, 756.496 464.168 C 755.790 467.935, 757.129 469.701, 763.171 472.966 C 766.172 474.588, 766.783 474.620, 769.376 473.292 C 770.958 472.481, 773.208 470.734, 774.376 469.410 C 775.897 467.685, 776.910 467.265, 777.945 467.930 C 779.182 468.726, 779.115 469.371, 777.478 472.411 C 775.645 475.815, 775.640 476.016, 777.357 477.272 C 779.630 478.934, 786 478.284, 786 476.391 C 786 475.574, 787.032 475, 788.500 475 C 790.500 475, 791 475.500, 791 477.500 C 791 479.500, 791.500 480, 793.500 480 C 795.333 480, 796 480.533, 796 482 C 796 483.259, 796.667 484, 797.800 484 C 800.104 484, 802 485.896, 802 488.200 C 802 489.298, 802.737 490, 803.887 490 C 804.926 490, 806.838 491.389, 808.137 493.086 C 813.435 500.007, 815.389 500.695, 817.122 496.250 C 817.960 494.100, 817.819 492.518, 816.478 489 C 815.534 486.525, 814.534 483.467, 814.256 482.203 C 813.214 477.482, 794.646 461.815, 788 460.050 C 776.462 456.985, 772.210 456.019, 770.934 456.175 C 770.145 456.271, 767.479 456.527, 765.010 456.744 M 473 460 C 473 461.867, 473.267 462.133, 474.200 461.200 C 475.133 460.267, 475.133 459.733, 474.200 458.800 C 473.267 457.867, 473 458.133, 473 460 M 479.583 465.866 C 479.152 466.563, 479.070 467.403, 479.400 467.733 C 480.295 468.628, 481.271 467.312, 480.787 465.862 C 480.449 464.846, 480.213 464.846, 479.583 465.866 M 470 472.500 C 470 473.325, 470.450 474, 471 474 C 471.550 474, 472 473.325, 472 472.500 C 472 471.675, 471.550 471, 471 471 C 470.450 471, 470 471.675, 470 472.500 M 463 476.833 C 463 478.575, 463.459 480, 464.019 480 C 464.624 480, 464.770 478.883, 464.378 477.250 C 463.437 473.324, 463 473.192, 463 476.833 M 461.079 494.583 C 461.127 495.748, 461.364 495.985, 461.683 495.188 C 461.972 494.466, 461.936 493.603, 461.604 493.271 C 461.272 492.939, 461.036 493.529, 461.079 494.583 M 468 497.059 C 468 497.641, 468.450 497.840, 469 497.500 C 469.550 497.160, 470 496.684, 470 496.441 C 470 496.198, 469.550 496, 469 496 C 468.450 496, 468 496.477, 468 497.059 M 558.724 507.283 C 556.690 509.788, 556.404 515, 558.300 515 C 560.518 515, 562 512.741, 562 509.359 C 562 505.258, 560.921 504.574, 558.724 507.283 M 451.564 509.293 C 451.940 510.279, 452.499 510.834, 452.807 510.526 C 453.115 510.219, 452.808 509.412, 452.124 508.733 C 451.136 507.753, 451.022 507.868, 451.564 509.293 M 794.250 519.496 C 792.752 521.198, 792.660 522, 793.965 522 C 794.495 522, 795.411 521.100, 796 520 C 797.227 517.707, 796.108 517.385, 794.250 519.496 M 829.290 525.250 C 828.715 526.002, 828.635 529.890, 829.088 535 C 829.502 539.675, 829.877 545.188, 829.920 547.250 C 829.993 550.674, 830.244 551, 832.809 551 C 834.354 551, 836.423 550.411, 837.408 549.691 C 839.243 548.349, 841.383 539.910, 840.118 539.004 C 839.732 538.727, 839.318 537.150, 839.200 535.500 C 838.857 530.714, 836.993 526.067, 834.986 524.992 C 832.480 523.652, 830.441 523.744, 829.290 525.250 M 748.569 527.667 C 745.758 529.189, 737.625 529.651, 733.984 528.495 C 731.600 527.738, 728.171 529.801, 723.175 535 C 719.371 538.958, 718.915 539.911, 719.389 542.914 C 720.159 547.792, 721.292 548.550, 725.192 546.792 C 727.011 545.971, 730.075 544.704, 732 543.975 C 733.925 543.247, 736.694 541.829, 738.154 540.825 C 739.614 539.821, 741.126 539, 741.513 539 C 742.975 539, 755 529.562, 755 528.414 C 755 527.754, 754.288 526.941, 753.418 526.607 C 751.522 525.880, 752.106 525.752, 748.569 527.667 M 813 535 C 813 535.550, 813.450 536, 814 536 C 814.550 536, 815 535.550, 815 535 C 815 534.450, 814.550 534, 814 534 C 813.450 534, 813 534.450, 813 535 M 806.543 535.931 C 806.226 536.443, 806.425 537.144, 806.984 537.490 C 807.543 537.835, 808 537.416, 808 536.559 C 808 534.802, 807.400 534.544, 806.543 535.931 M 448.624 540.539 C 447.659 543.053, 447.943 543.702, 449.122 541.675 C 449.706 540.671, 449.973 539.639, 449.715 539.382 C 449.458 539.124, 448.966 539.645, 448.624 540.539 M 727.619 548.524 C 725.708 550.434, 725.396 555.368, 727.224 554.759 C 728.320 554.393, 730.295 547.962, 729.542 547.209 C 729.375 547.042, 728.510 547.633, 727.619 548.524 M 787.079 548.583 C 787.127 549.748, 787.364 549.985, 787.683 549.188 C 787.972 548.466, 787.936 547.603, 787.604 547.271 C 787.272 546.939, 787.036 547.529, 787.079 548.583 M 774.565 548.895 C 774.260 549.388, 774.684 550.048, 775.506 550.364 C 776.413 550.712, 777 550.361, 777 549.469 C 777 547.851, 775.437 547.483, 774.565 548.895 M 792.270 550.931 C 792.350 551.993, 792.659 552.821, 792.958 552.772 C 793.256 552.723, 794.288 553.027, 795.250 553.448 C 796.212 553.869, 797.736 553.931, 798.636 553.586 C 800.127 553.014, 800.113 552.783, 798.481 550.979 C 796.097 548.344, 792.073 548.313, 792.270 550.931 M 719.569 553.486 C 719.209 555.403, 719.385 557.851, 719.960 558.925 C 720.654 560.223, 720.669 561.087, 720.003 561.498 C 718.326 562.535, 718.778 566.299, 720.500 565.638 C 721.325 565.322, 722 565.499, 722 566.031 C 722 566.564, 721.325 567, 720.500 567 C 719.675 567, 719 567.477, 719 568.059 C 719 568.641, 718.642 568.897, 718.204 568.626 C 717.766 568.355, 717.428 569.902, 717.454 572.064 C 717.479 574.225, 717.855 575.995, 718.289 575.997 C 718.723 575.999, 718.160 576.985, 717.039 578.189 C 715.918 579.392, 715 581.257, 715 582.332 C 715 583.766, 715.947 583.047, 718.553 579.634 C 720.507 577.075, 721.874 574.605, 721.591 574.147 C 721.307 573.688, 721.549 571.595, 722.129 569.495 C 722.818 566.998, 723.453 566.114, 723.963 566.940 C 724.465 567.753, 724.935 567.009, 725.282 564.851 C 725.825 561.476, 722.498 550, 720.977 550 C 720.562 550, 719.928 551.569, 719.569 553.486 M 510.613 553.183 C 510.902 553.650, 511.557 553.774, 512.069 553.457 C 513.377 552.649, 513.230 552.333, 511.544 552.333 C 510.743 552.333, 510.324 552.716, 510.613 553.183 M 772 559.140 C 772 560.317, 771.212 561.860, 770.250 562.570 C 768.607 563.781, 768.637 563.988, 770.750 565.969 C 771.987 567.129, 773 569.159, 773 570.480 C 773 571.801, 773.520 573.203, 774.156 573.596 C 774.989 574.111, 775.143 573.266, 774.705 570.567 C 774.224 567.605, 774.390 566.936, 775.498 567.361 C 776.418 567.714, 776.707 567.401, 776.342 566.449 C 776.031 565.639, 776.363 565, 777.093 565 C 778.110 565, 778.133 564.733, 777.200 563.800 C 776.540 563.140, 776 561.340, 776 559.800 C 776 557.667, 775.524 557, 774 557 C 772.623 557, 772 557.667, 772 559.140 M 699.633 562.515 C 698.532 565.382, 698.944 566.199, 700.636 564.507 C 701.729 563.413, 701.939 562.539, 701.268 561.868 C 700.598 561.198, 700.056 561.412, 699.633 562.515 M 748.991 569.489 C 750.240 570.994, 752 570.673, 752 568.941 C 752 568.423, 751.045 568, 749.878 568 C 748.111 568, 747.962 568.250, 748.991 569.489 M 789 569 C 789 569.550, 789.477 570, 790.059 570 C 790.641 570, 790.840 569.550, 790.500 569 C 790.160 568.450, 789.684 568, 789.441 568 C 789.198 568, 789 568.450, 789 569 M 784.250 572.662 C 783.563 572.940, 783 574.049, 783 575.127 C 783 576.205, 782.438 577.015, 781.750 576.925 C 781.063 576.836, 779.375 576.823, 778 576.897 C 776.166 576.995, 775.867 577.263, 776.878 577.904 C 777.636 578.384, 777.942 579.284, 777.559 579.905 C 777.176 580.525, 776.443 580.774, 775.931 580.457 C 775.419 580.141, 775 580.314, 775 580.842 C 775 581.369, 776.688 582.200, 778.750 582.688 C 780.970 583.213, 782.500 584.172, 782.500 585.038 C 782.500 585.842, 781.965 586.397, 781.311 586.270 C 780.657 586.144, 779.846 586.909, 779.510 587.969 C 779.141 589.132, 778.323 589.677, 777.449 589.342 C 775.771 588.698, 775.475 586, 777.083 586 C 777.679 586, 777.979 585.438, 777.750 584.750 C 777.255 583.264, 775.026 583.066, 774.940 584.500 C 774.908 585.050, 773.972 585.836, 772.860 586.247 C 771.194 586.864, 770.952 587.564, 771.482 590.247 C 772.641 596.113, 774.194 599.111, 775.890 598.755 C 776.880 598.548, 777.408 597.568, 777.262 596.209 C 777.074 594.469, 777.541 594, 779.465 594 C 783.661 594, 786.822 592.035, 786.235 589.792 C 785.944 588.678, 786.329 587.380, 787.107 586.856 C 788.173 586.137, 788.031 585.985, 786.500 586.208 C 785.176 586.401, 784.608 586.006, 784.821 585.038 C 784.997 584.234, 784.395 583.031, 783.483 582.364 C 781.655 581.027, 781.915 577.352, 783.809 577.750 C 784.464 577.888, 785 577.100, 785 576 C 785 574.900, 785.450 574, 786 574 C 786.550 574, 787 573.550, 787 573 C 787 571.936, 786.271 571.847, 784.250 572.662 M 797.035 573.934 C 795.528 576.750, 795.689 577, 799 577 C 802.053 577, 802.474 576.399, 801.393 573.582 C 800.560 571.411, 798.287 571.595, 797.035 573.934 M 749 573.378 C 749 573.585, 749.685 574.324, 750.523 575.019 C 751.796 576.076, 751.943 576.014, 751.416 574.641 C 750.878 573.240, 749 572.257, 749 573.378 M 767 578.714 C 767 580.853, 767.485 582, 768.391 582 C 769.218 582, 769.937 580.669, 770.165 578.714 C 770.471 576.091, 770.191 575.429, 768.774 575.429 C 767.435 575.429, 767 576.235, 767 578.714 M 762 580.375 C 762 581.131, 761.707 583.217, 761.348 585.009 C 760.856 587.468, 761.021 588.160, 762.017 587.828 C 763.488 587.337, 766.170 580.503, 765.252 579.585 C 764.146 578.480, 762 579.001, 762 580.375 M 704.694 580.639 C 703.895 581.438, 704.798 583, 706.059 583 C 706.577 583, 707 582.325, 707 581.500 C 707 579.954, 705.820 579.513, 704.694 580.639 M 743.136 582.602 C 742.101 584.872, 741.738 585.031, 740.288 583.852 C 738.818 582.656, 738.718 582.731, 739.426 584.500 C 739.867 585.600, 740.453 587.288, 740.730 588.250 C 741.007 589.212, 741.663 590, 742.188 590 C 743.845 590, 746.216 587.006, 745.675 585.596 C 745.390 584.852, 745.622 583.778, 746.191 583.209 C 747.246 582.154, 746.515 580, 745.101 580 C 744.672 580, 743.788 581.171, 743.136 582.602 M 484.500 583 C 484.840 583.550, 485.316 584, 485.559 584 C 485.802 584, 486 583.550, 486 583 C 486 582.450, 485.523 582, 484.941 582 C 484.359 582, 484.160 582.450, 484.500 583 M 697 583.500 C 697 584.325, 697.450 585, 698 585 C 698.550 585, 699 584.325, 699 583.500 C 699 582.675, 698.550 582, 698 582 C 697.450 582, 697 582.675, 697 583.500 M 747.872 583.692 C 746.983 584.788, 746.933 585.124, 747.729 584.646 C 748.405 584.240, 749.841 584.380, 750.919 584.956 C 752.141 585.611, 753.100 585.647, 753.467 585.053 C 753.791 584.529, 753.173 583.628, 752.094 583.050 C 749.552 581.690, 749.488 581.700, 747.872 583.692 M 707 586.929 C 707 587.518, 706.325 588, 705.500 588 C 704.667 588, 704 588.889, 704 590 C 704 592.327, 705.715 592.531, 708.372 590.519 C 710.099 589.211, 710.118 588.975, 708.622 587.479 C 707.730 586.587, 707 586.339, 707 586.929 M 700 589.059 C 700 589.641, 699.550 589.840, 699 589.500 C 698.397 589.127, 698 590.478, 698 592.906 C 698 595.920, 698.507 597.201, 700.021 598.011 C 702.334 599.249, 704 598.567, 704 596.382 C 704 595.557, 703.582 595.140, 703.072 595.456 C 702.033 596.098, 700.482 592.184, 701.409 591.258 C 701.734 590.933, 702 591.443, 702 592.392 C 702 593.341, 702.433 593.850, 702.962 593.523 C 703.566 593.150, 703.506 592.010, 702.802 590.464 C 701.662 587.962, 700 587.128, 700 589.059 M 747.500 592 C 747.840 592.550, 748.316 593, 748.559 593 C 748.802 593, 749 592.550, 749 592 C 749 591.450, 748.523 591, 747.941 591 C 747.359 591, 747.160 591.450, 747.500 592 M 786.200 594.200 C 783.927 596.473, 784.764 598.275, 787.750 597.538 C 791.133 596.702, 792.438 595.518, 791.554 594.087 C 790.660 592.641, 787.696 592.704, 786.200 594.200 M 765.667 595.667 C 764.452 596.881, 764.976 597.947, 766.500 597.362 C 767.325 597.045, 768 596.384, 768 595.893 C 768 594.845, 766.622 594.711, 765.667 595.667 M 731 597 C 731 597.550, 731.423 598, 731.941 598 C 732.459 598, 733.160 597.550, 733.500 597 C 733.840 596.450, 733.416 596, 732.559 596 C 731.702 596, 731 596.450, 731 597 M 731 600.382 C 731 601.207, 731.450 602.160, 732 602.500 C 732.550 602.840, 733 602.443, 733 601.618 C 733 600.793, 732.550 599.840, 732 599.500 C 731.450 599.160, 731 599.557, 731 600.382 M 744.667 599.667 C 743.750 600.583, 743.824 604, 744.759 604 C 745.876 604, 747.985 600.318, 747.274 599.608 C 746.481 598.814, 745.497 598.837, 744.667 599.667 M 719.750 600.577 C 719.337 600.993, 719.014 602.496, 719.030 603.917 C 719.057 606.183, 719.188 606.281, 720.098 604.719 C 721.236 602.762, 720.951 599.365, 719.750 600.577 M 499.472 603.213 C 499.180 603.972, 500.080 606.734, 501.471 609.350 C 502.862 611.965, 504 614.670, 504 615.359 C 504 616.048, 505.173 618.161, 506.607 620.056 L 509.214 623.500 508.555 618.500 C 507.834 613.038, 503.245 602.801, 501.251 602.206 C 500.563 602.001, 499.763 602.455, 499.472 603.213 M 763.780 604.584 C 762.302 607.827, 763.378 608.638, 766.469 606.612 C 768.848 605.053, 769.005 605.060, 769.079 606.727 C 769.123 607.709, 769.377 607.959, 769.650 607.288 C 770.348 605.565, 768.529 602.695, 766.555 602.405 C 765.604 602.266, 764.408 603.205, 763.780 604.584 M 740 605 C 740 605.550, 740.675 606, 741.500 606 C 742.325 606, 743 605.550, 743 605 C 743 604.450, 742.325 604, 741.500 604 C 740.675 604, 740 604.450, 740 605 M 766.079 609.583 C 766.127 610.748, 766.364 610.985, 766.683 610.188 C 766.972 609.466, 766.936 608.603, 766.604 608.271 C 766.272 607.939, 766.036 608.529, 766.079 609.583 M 743.079 611.250 C 743.036 612.212, 742.550 613, 742 613 C 740.143 613, 740.983 615.762, 743 616.290 C 744.100 616.577, 745 616.405, 745 615.906 C 745 615.408, 744.270 615, 743.378 615 C 742.065 615, 741.988 614.720, 742.972 613.534 C 743.641 612.727, 743.957 611.490, 743.673 610.784 C 743.349 609.977, 743.129 610.150, 743.079 611.250 M 760.500 611 C 760.840 611.550, 761.316 612, 761.559 612 C 761.802 612, 762 611.550, 762 611 C 762 610.450, 761.523 610, 760.941 610 C 760.359 610, 760.160 610.450, 760.500 611 M 762.385 612.765 C 761.771 613.169, 760.948 614.530, 760.555 615.789 C 759.898 617.892, 760.070 618.023, 762.670 617.401 C 766.812 616.409, 767.083 616.105, 765.739 613.954 C 764.399 611.808, 764.034 611.679, 762.385 612.765 M 708.250 614.250 C 708.478 614.938, 709.497 615.661, 710.512 615.858 C 712.208 616.187, 712.228 616.085, 710.751 614.608 C 708.829 612.686, 707.674 612.521, 708.250 614.250 M 721.635 616.850 C 720.200 618.437, 720.158 618.886, 721.354 619.879 C 722.492 620.823, 722.860 620.518, 723.291 618.272 C 723.966 614.760, 723.719 614.548, 721.635 616.850 M 737.500 616 C 737.840 616.550, 738.568 617, 739.118 617 C 739.668 617, 739.840 616.550, 739.500 616 C 739.160 615.450, 738.432 615, 737.882 615 C 737.332 615, 737.160 615.450, 737.500 616 M 708.459 619.067 C 708.096 619.653, 708.070 620.403, 708.400 620.733 C 708.730 621.063, 709 620.841, 709 620.240 C 709 619.639, 709.788 618.941, 710.750 618.689 C 712.328 618.277, 712.334 618.221, 710.809 618.116 C 709.879 618.052, 708.821 618.480, 708.459 619.067 M 545.079 628.583 C 545.127 629.748, 545.364 629.985, 545.683 629.188 C 545.972 628.466, 545.936 627.603, 545.604 627.271 C 545.272 626.939, 545.036 627.529, 545.079 628.583 M 707.813 627.683 C 708.534 627.972, 709.397 627.936, 709.729 627.604 C 710.061 627.272, 709.471 627.036, 708.417 627.079 C 707.252 627.127, 707.015 627.364, 707.813 627.683 M 640.003 639.453 C 638.176 640.464, 637.153 640.542, 636.190 639.743 C 635.138 638.870, 635.007 639.178, 635.535 641.282 C 636.090 643.493, 635.810 644.010, 633.783 644.518 C 632.456 644.851, 630.950 645.024, 630.436 644.903 C 628.812 644.520, 626 646.161, 626 647.492 C 626 651.378, 634.326 652.518, 659.309 652.052 C 663.058 651.982, 661.981 650.531, 655.891 647.445 C 653.047 646.004, 650.542 643.926, 650.033 642.586 C 649.533 641.273, 647.730 639.753, 645.922 639.123 C 644.151 638.505, 642.656 638.016, 642.601 638.035 C 642.545 638.055, 641.376 638.693, 640.003 639.453 M 742 641.941 C 742 642.459, 742.450 643.160, 743 643.500 C 743.550 643.840, 744 643.416, 744 642.559 C 744 641.702, 743.550 641, 743 641 C 742.450 641, 742 641.423, 742 641.941 M 740.036 651.456 C 738.494 653.314, 739.466 654.916, 742.020 654.724 C 743.373 654.622, 744 653.850, 744 652.287 C 744 649.702, 741.864 649.254, 740.036 651.456 M 736.078 654.854 C 735.426 656.072, 735.365 657.108, 735.925 657.454 C 736.437 657.770, 737.154 657.089, 737.519 655.939 C 738.420 653.101, 737.419 652.348, 736.078 654.854 M 714.079 659.583 C 714.127 660.748, 714.364 660.985, 714.683 660.188 C 714.972 659.466, 714.936 658.603, 714.604 658.271 C 714.272 657.939, 714.036 658.529, 714.079 659.583 M 720 659.941 C 720 661.073, 720.450 662, 721 662 C 721.550 662, 722 661.352, 722 660.559 C 722 659.766, 721.550 658.840, 721 658.500 C 720.450 658.160, 720 658.809, 720 659.941 M 1127.300 767.862 C 1120.005 770.383, 1114.143 774.722, 1112.401 778.892 C 1111.588 780.836, 1110.294 783.122, 1109.525 783.972 C 1108.756 784.823, 1107.085 789.114, 1105.813 793.509 C 1103.555 801.309, 1103.500 802.530, 1103.500 844.500 C 1103.500 905.942, 1105.734 943.085, 1110.591 962.423 C 1111.999 968.029, 1112.744 969.333, 1115.284 970.647 C 1119.356 972.753, 1130.596 972.150, 1134.458 969.620 C 1137.147 967.857, 1137.230 967.563, 1136.544 962.143 C 1135.711 955.557, 1135.765 957.747, 1135.942 937.250 C 1136.019 928.313, 1136.458 921, 1136.918 921 C 1137.924 921, 1141.240 928.576, 1143.293 935.561 C 1144.552 939.846, 1149.540 951.068, 1156.808 965.969 C 1160.469 973.475, 1168.243 975.712, 1178.484 972.206 C 1184.672 970.088, 1186.271 967.427, 1185.627 960.317 C 1185.067 954.128, 1175.957 925.839, 1171.999 917.998 C 1170.459 914.946, 1168.658 910.443, 1167.998 907.992 C 1166.337 901.823, 1163.019 895.554, 1157.602 888.348 C 1155.071 884.981, 1153 881.837, 1153.001 881.363 C 1153.001 880.888, 1155.813 877.971, 1159.251 874.880 C 1166.665 868.211, 1171.795 860.094, 1173.573 852.219 C 1176.141 840.838, 1178.198 820.661, 1177.513 813.569 C 1176.616 804.292, 1172.776 789.462, 1169.703 783.411 C 1165.501 775.139, 1159.594 769.254, 1153.750 767.518 C 1146.754 765.441, 1133.821 765.609, 1127.300 767.862 M 863.163 771.677 C 857.004 773.135, 856.762 773.315, 854.550 778.090 C 852.579 782.345, 852.396 783.706, 853.188 788.251 C 854.441 795.445, 856.656 798.155, 863.082 800.356 C 867.882 802.001, 869.628 802.094, 878.388 801.168 C 887.550 800.201, 888.525 799.884, 891.649 796.855 C 895.929 792.708, 899 786.401, 899 781.761 C 899 777.116, 895.131 772.408, 890.186 771.035 C 884.931 769.576, 870.601 769.916, 863.163 771.677 M 166.810 773.975 C 157.487 775.157, 149.684 777.586, 147.517 779.981 C 143.639 784.266, 149.344 789.739, 160.061 792.013 L 166 793.273 165.964 797.387 C 165.945 799.649, 165.461 806, 164.889 811.500 C 164.317 817, 163.597 844.450, 163.290 872.500 C 162.983 900.550, 162.695 926.875, 162.649 931 C 162.528 942.052, 164.140 966.243, 165.125 968.165 C 166.599 971.039, 184.261 973.372, 189.455 971.379 C 192.859 970.073, 194.155 965.302, 193.861 955.163 C 193.161 931.038, 196.144 891.613, 199.110 885.790 C 200.350 883.356, 201 879.986, 201 875.990 C 201 872.077, 201.625 868.757, 202.750 866.700 C 204.315 863.838, 204.500 860.067, 204.500 831.020 L 204.500 798.540 208.500 798.811 C 212.995 799.116, 225.779 796.076, 232.494 793.106 C 240.683 789.483, 239.263 781.728, 229.764 778.198 C 224.418 776.211, 213.361 774.282, 207 774.226 C 205.075 774.209, 196.750 773.955, 188.500 773.661 C 180.250 773.367, 170.490 773.508, 166.810 773.975 M 556.916 774.698 C 527.478 777.786, 523.066 779.328, 520.926 787.274 C 519.169 793.800, 520.874 795.218, 532.617 797 L 542.500 798.500 543.207 806 C 544.974 824.754, 546.878 869.036, 547.441 904.500 C 547.934 935.590, 548.685 948.657, 550.469 957.180 C 553.212 970.290, 556.184 972.705, 568.301 971.670 C 577.365 970.895, 585.141 968.607, 587.476 966.026 C 589.193 964.129, 589.201 963.632, 587.635 955.747 C 586.428 949.671, 586.163 945.012, 586.641 938.277 C 587.043 932.611, 586.849 926.872, 586.135 923.296 C 585.169 918.456, 584.390 892.842, 583.618 840.500 C 583.553 836.100, 583.066 831.825, 582.535 831 C 582.004 830.175, 581.690 826.800, 581.835 823.500 C 581.981 820.200, 581.410 814.575, 580.565 811 C 578.118 800.640, 577.446 801.348, 590.250 800.779 C 598.943 800.393, 602.700 799.762, 606.778 798.004 C 615.857 794.091, 619.078 786.131, 614.297 779.417 C 612.219 776.498, 611.652 776.323, 598.820 774.617 C 584.696 772.741, 575.401 772.759, 556.916 774.698 M 780.810 773.975 C 771.487 775.157, 763.684 777.586, 761.517 779.981 C 757.639 784.266, 763.695 790.043, 774.250 792.126 L 780 793.260 779.964 797.380 C 779.945 799.646, 779.461 806, 778.889 811.500 C 778.317 817, 777.597 844.450, 777.290 872.500 C 776.983 900.550, 776.695 926.875, 776.649 931 C 776.528 942.052, 778.140 966.243, 779.125 968.165 C 780.599 971.039, 798.261 973.372, 803.455 971.379 C 806.859 970.073, 808.155 965.302, 807.861 955.163 C 807.161 931.038, 810.144 891.613, 813.110 885.790 C 814.350 883.356, 815 879.986, 815 875.990 C 815 872.077, 815.625 868.757, 816.750 866.700 C 818.315 863.838, 818.500 860.067, 818.500 831.004 L 818.500 798.508 822.078 798.816 C 830.066 799.503, 849.467 793.264, 851.205 789.449 C 852.649 786.280, 850.594 781.359, 847.065 779.534 C 842.518 777.182, 831.807 774.765, 824.500 774.442 C 800.486 773.379, 786.671 773.231, 780.810 773.975 M 476.361 782.922 C 474.634 783.975, 473.059 785.230, 472.861 785.711 C 472.662 786.192, 470.865 787.583, 468.868 788.801 C 466.870 790.020, 464.798 792.251, 464.264 793.759 C 460.610 804.067, 447.207 885.556, 445.966 905 C 445.458 912.975, 444.591 922.425, 444.041 926 C 443.491 929.575, 443.033 936.775, 443.024 942 C 443.005 953.049, 444.754 957.164, 450.490 959.560 C 459.951 963.513, 468.987 959.182, 469.005 950.685 C 469.007 949.483, 470.085 945.858, 471.400 942.630 C 473.283 938.008, 473.599 936.095, 472.885 933.630 C 472.313 931.656, 472.373 928.584, 473.047 925.312 C 473.635 922.458, 473.977 919.308, 473.808 918.312 C 473.561 916.857, 474.280 916.436, 477.456 916.177 C 479.632 916, 482.833 916.121, 484.570 916.447 C 487.636 917.022, 487.747 917.227, 488.389 923.489 C 489.302 932.409, 493.170 947.145, 497.031 956.419 C 501.277 966.618, 503.716 968.284, 513.586 967.724 C 517.778 967.486, 522.271 966.541, 524.586 965.411 L 528.500 963.500 528.778 955.500 C 529.060 947.367, 528.357 937.970, 525.521 912 C 524.650 904.025, 524.202 896.012, 524.525 894.194 C 525.280 889.939, 523.475 877.464, 518.275 851 C 517.465 846.875, 516.677 841.700, 516.525 839.500 C 516.129 833.774, 510.658 814.219, 508.137 809.515 C 506.961 807.323, 506 804.613, 506 803.492 C 506 800.351, 499.011 789.265, 494.284 784.907 C 490.471 781.393, 489.515 781, 484.772 781.004 C 481.344 781.006, 478.402 781.677, 476.361 782.922 M 335 782.732 C 331.633 783.351, 330.346 784.546, 329.564 787.781 C 328.345 792.817, 326.842 836.225, 326.579 874 C 326.435 894.625, 326.008 912.862, 325.629 914.526 C 324.739 918.433, 326.565 942.441, 328.099 947 C 328.747 948.925, 330.227 951.563, 331.389 952.863 C 333.423 955.140, 333.904 955.209, 344.500 954.745 C 356.056 954.239, 361.131 952.813, 364.387 949.158 C 366.067 947.272, 366.296 945.095, 366.479 929.270 C 366.592 919.496, 367.054 904.998, 367.506 897.052 L 368.327 882.604 370.035 889.874 C 370.975 893.872, 372.271 897.671, 372.916 898.316 C 373.561 898.961, 377.605 899.649, 381.902 899.844 C 394.467 900.415, 397.312 898.004, 400.940 883.715 L 402.753 876.578 403.547 894.039 C 403.984 903.643, 404.299 920.649, 404.246 931.831 L 404.151 952.161 407.825 956.237 C 412.041 960.913, 417.963 963.946, 422.938 963.978 C 426.485 964.001, 432.417 960.694, 433.662 958 C 434.044 957.175, 434.542 947.050, 434.771 935.500 C 435.083 919.726, 434.784 911.597, 433.570 902.834 C 432.324 893.843, 432.198 890.078, 433.019 886.414 C 433.605 883.800, 433.751 880.275, 433.344 878.580 C 432.937 876.886, 432.728 873.446, 432.880 870.935 C 433.032 868.425, 432.180 854.925, 430.986 840.935 C 429.792 826.946, 429.083 813.515, 429.410 811.090 C 430.122 805.815, 428.186 789.070, 426.638 787.123 C 424.969 785.022, 412.021 786.397, 406.216 789.292 C 400.820 791.983, 397.691 797.118, 388.290 818.718 C 385.125 825.988, 382.260 831.613, 381.922 831.218 C 381.585 830.823, 379.849 826.245, 378.065 821.046 C 373.316 807.200, 369.765 800.849, 362.421 793.064 C 352.940 783.013, 346.555 780.608, 335 782.732 M 916 782.732 C 912.633 783.351, 911.346 784.546, 910.564 787.781 C 909.345 792.817, 907.842 836.225, 907.579 874 C 907.435 894.625, 907.008 912.862, 906.629 914.526 C 905.739 918.433, 907.565 942.441, 909.099 947 C 909.747 948.925, 911.227 951.563, 912.389 952.863 C 914.423 955.140, 914.904 955.209, 925.500 954.745 C 937.013 954.240, 942.132 952.812, 945.343 949.207 C 946.967 947.383, 947.219 944.961, 947.463 928.819 C 947.615 918.743, 948.098 904.225, 948.534 896.556 L 949.329 882.611 951.036 889.877 C 951.975 893.874, 953.271 897.671, 953.916 898.316 C 954.561 898.961, 958.605 899.649, 962.902 899.844 C 975.467 900.415, 978.312 898.004, 981.940 883.715 L 983.753 876.578 984.547 894.039 C 984.984 903.643, 985.299 920.649, 985.246 931.831 L 985.151 952.161 988.825 956.237 C 993.041 960.913, 998.963 963.946, 1003.938 963.978 C 1007.485 964.001, 1013.417 960.694, 1014.662 958 C 1015.044 957.175, 1015.542 947.050, 1015.771 935.500 C 1016.083 919.726, 1015.784 911.597, 1014.570 902.834 C 1013.324 893.843, 1013.198 890.078, 1014.019 886.414 C 1014.605 883.800, 1014.751 880.275, 1014.344 878.580 C 1013.937 876.886, 1013.728 873.446, 1013.880 870.935 C 1014.032 868.425, 1013.180 854.925, 1011.986 840.935 C 1010.792 826.946, 1010.082 813.519, 1010.409 811.097 C 1011.136 805.713, 1009.232 789.019, 1007.675 787.123 C 1005.952 785.024, 993.025 786.395, 987.216 789.292 C 981.820 791.983, 978.691 797.118, 969.290 818.718 C 966.125 825.988, 963.260 831.613, 962.922 831.218 C 962.585 830.823, 960.849 826.245, 959.065 821.046 C 954.316 807.200, 950.765 800.849, 943.421 793.064 C 933.940 783.013, 927.555 780.608, 916 782.732 M 1133.990 784.018 C 1132.147 787.461, 1131.263 799.230, 1132.075 809.500 C 1132.510 815, 1133.382 826.025, 1134.012 834 C 1134.643 841.975, 1135.484 850.075, 1135.881 852 L 1136.604 855.500 1139.270 850.967 C 1143.273 844.161, 1144.915 838.671, 1146.114 828.084 C 1147.943 811.939, 1145.851 796.541, 1140.613 787.603 C 1137.591 782.446, 1135.451 781.288, 1133.990 784.018 M 1032.011 785.590 C 1029.542 787.001, 1027.192 788.683, 1026.790 789.328 C 1026.108 790.419, 1025.893 804.534, 1025.656 864 C 1025.516 899.052, 1026.582 936.713, 1027.907 943.500 C 1031.416 961.474, 1030.873 960.048, 1034.839 961.720 C 1043.997 965.580, 1074.256 965.097, 1083.929 960.935 C 1092.724 957.152, 1096.862 949.677, 1091.750 946.807 C 1090.252 945.966, 1084.986 945.536, 1076 945.522 L 1062.500 945.500 1062.231 940 C 1061.487 924.780, 1060.014 897.202, 1059.828 895 C 1059.711 893.625, 1059.702 886.140, 1059.808 878.366 L 1060 864.232 1067.057 861.616 C 1070.939 860.177, 1075.326 858.998, 1076.807 858.996 C 1080.090 858.992, 1085.478 855.845, 1086.967 853.063 C 1088.610 849.992, 1085.925 845.585, 1081.288 843.742 C 1076.723 841.928, 1067.978 840.064, 1062.500 839.738 L 1058.500 839.500 1058.765 834 C 1058.911 830.975, 1059.005 826.250, 1058.973 823.500 C 1058.942 820.750, 1059.187 816.587, 1059.519 814.250 L 1060.123 810 1065.811 809.992 C 1079.771 809.974, 1090.493 806.329, 1094.935 800.092 C 1097.829 796.027, 1097.516 793.316, 1093.715 789.515 L 1090.429 786.229 1075.465 785.589 C 1067.234 785.237, 1057.219 784.510, 1053.209 783.974 C 1041.382 782.394, 1037.022 782.726, 1032.011 785.590 M 271.500 789.631 C 263.039 791.319, 254.777 794.640, 252.137 797.415 C 247.708 802.068, 240.919 824.434, 236.934 847.500 C 236.363 850.800, 235.481 855.525, 234.974 858 C 234.466 860.475, 233.970 873.300, 233.871 886.500 C 233.708 908.438, 233.883 911.230, 235.917 919 C 239.423 932.390, 246.557 948.404, 250.598 951.952 C 255.029 955.843, 257.642 956.436, 266.359 955.529 C 275.166 954.613, 275.836 954.613, 284.513 955.518 L 291.526 956.250 297.708 951.084 C 301.109 948.243, 304.166 944.924, 304.501 943.709 C 304.836 942.494, 306.881 937.675, 309.045 933 C 312.455 925.632, 313.261 922.436, 315.100 909 C 316.874 896.039, 317.094 891.289, 316.443 880 C 315.681 866.773, 315.610 862.356, 315.906 846.795 C 316.100 836.600, 314.569 827.462, 310.829 816.500 C 305.157 799.875, 300.582 793.528, 292.121 790.543 C 288.101 789.124, 276.589 788.616, 271.500 789.631 M 645.500 790.965 C 631.093 794.782, 629.547 796.307, 624.681 811.500 C 620.787 823.660, 615 848.449, 615 852.974 C 615 854.567, 614.583 856.965, 614.074 858.305 C 613.565 859.644, 613.047 871.936, 612.923 885.620 C 612.715 908.537, 612.873 911.171, 614.920 919 C 618.419 932.381, 625.556 948.403, 629.598 951.952 C 634.029 955.843, 636.642 956.436, 645.359 955.529 C 653.758 954.655, 654.364 954.656, 663.521 955.550 L 670.543 956.236 676.717 951.077 C 680.113 948.239, 683.166 944.924, 683.501 943.709 C 683.836 942.494, 685.881 937.675, 688.045 933 C 691.455 925.632, 692.261 922.436, 694.100 909 C 695.874 896.039, 696.094 891.289, 695.443 880 C 694.681 866.773, 694.610 862.356, 694.906 846.795 C 694.987 842.557, 694.568 836.032, 693.976 832.295 C 692.775 824.718, 687.975 809.914, 684.457 802.937 C 681.544 797.161, 675.263 791.444, 670.321 790.072 C 664.578 788.477, 653.366 788.881, 645.500 790.965 M 275.590 823.701 C 274.684 828.541, 273.189 842.497, 272.267 854.716 C 270.873 873.203, 270.784 879.244, 271.739 890.716 C 273.021 906.115, 275.929 925, 277.017 925 C 278.030 925, 280.690 917.612, 282.418 910 C 286.228 893.220, 286.643 876.350, 284.041 844 C 283.255 834.229, 279.483 817.149, 277.721 815.388 C 277.454 815.121, 276.495 818.862, 275.590 823.701 M 654.606 823.614 C 653.691 828.501, 652.190 842.491, 651.268 854.702 C 649.438 878.968, 650.135 895.222, 653.917 916.500 L 655.695 926.500 657.717 921.972 C 664.518 906.742, 666.173 882.909, 663.098 844.500 C 662.321 834.790, 659.167 820.055, 657.022 816.114 C 656.571 815.283, 655.602 818.289, 654.606 823.614 M 863.500 820.665 C 857.727 823.716, 857 824.891, 857 831.178 C 857 834.405, 856.123 845.698, 855.052 856.273 C 852.678 879.703, 852.504 909.247, 854.569 938 C 856.458 964.301, 856.454 964.279, 860.521 968.591 L 863.963 972.240 873.231 971.738 C 883.207 971.198, 892.656 968.547, 894.360 965.812 C 895.112 964.606, 894.843 958.208, 893.420 943.408 C 891.719 925.713, 891.609 921.658, 892.665 915.596 C 893.521 910.683, 893.617 906.679, 892.979 902.580 C 892.406 898.901, 892.422 893.036, 893.024 887.080 C 893.556 881.811, 893.995 876.150, 894 874.500 C 894.005 872.850, 894.232 864.975, 894.504 857 C 895.310 833.400, 891.735 822.687, 882.168 820.030 C 876.692 818.509, 866.954 818.840, 863.500 820.665 M 481.766 840.500 C 481.424 841.600, 480.854 844.975, 480.498 848 C 480.143 851.025, 479.027 858.675, 478.019 865 C 477.011 871.325, 475.947 881.292, 475.655 887.150 C 475.063 899.022, 475.022 898.954, 482.722 898.986 L 485.944 899 486.167 889.750 C 486.633 870.428, 485.975 856.281, 484.204 847.500 C 483.021 841.637, 482.171 839.197, 481.766 840.500" stroke="none" fill="black" fill-rule="evenodd"/>
</svg>